# This file uses centimeters as units for non-parametric coordinates.

mtllib JFS_Block_3.mtl
g default
v -7.500000 4.051677 7.500000
v -5.000000 4.051677 7.500000
v -2.500000 4.051677 7.500000
v 0.000000 4.051677 7.500000
v 2.500000 4.051677 7.500000
v 5.000000 4.051677 7.500000
v 7.500000 4.051677 7.500000
v -7.500000 6.051677 7.500000
v -5.000000 6.051677 7.500000
v -2.500000 6.051677 7.500000
v 0.000000 6.051677 7.500000
v 2.500000 6.051677 7.500000
v 5.000000 6.051677 7.500000
v 7.500000 6.051677 7.500000
v -7.500000 6.051677 5.000000
v -5.000000 6.051677 5.000000
v -2.500000 6.051677 5.000000
v 0.000000 6.051677 5.000000
v 2.500000 6.051677 5.000000
v 5.000000 6.051677 5.000000
v 7.500000 6.051677 5.000000
v -7.500000 6.051677 2.500000
v -5.000000 6.051677 2.500000
v -2.500000 6.051677 2.500000
v 0.000000 6.051677 2.500000
v 2.500000 6.051677 2.500000
v 5.000000 6.051677 2.500000
v 7.500000 6.051677 2.500000
v -7.500000 6.051677 0.000000
v -5.000000 6.051677 0.000000
v -2.500000 6.051677 0.000000
v 2.500000 6.051677 0.000000
v 5.000000 6.051677 0.000000
v 7.500000 6.051677 0.000000
v -7.500000 6.051677 -2.500000
v -5.000000 6.051677 -2.500000
v -2.500000 6.051677 -2.500000
v 0.000000 6.051677 -2.500000
v 2.500000 6.051677 -2.500000
v 5.000000 6.051677 -2.500000
v 7.500000 6.051677 -2.500000
v -7.500000 6.051677 -5.000000
v -5.000000 6.051677 -5.000000
v -2.500000 6.051677 -5.000000
v 0.000000 6.051677 -5.000000
v 2.500000 6.051677 -5.000000
v 5.000000 6.051677 -5.000000
v 7.500000 6.051677 -5.000000
v -7.500000 6.051677 -7.500000
v -5.000000 6.051677 -7.500000
v -2.500000 6.051677 -7.500000
v 0.000000 6.051677 -7.500000
v 2.500000 6.051677 -7.500000
v 5.000000 6.051677 -7.500000
v 7.500000 6.051677 -7.500000
v -7.500000 4.051677 -7.500000
v -5.000000 4.051677 -7.500000
v -2.500000 4.051677 -7.500000
v 0.000000 4.051677 -7.500000
v 2.500000 4.051677 -7.500000
v 5.000000 4.051677 -7.500000
v 7.500000 4.051677 -7.500000
v -7.500000 4.051677 -5.000000
v -5.000000 4.051677 -5.000000
v -2.500000 4.051677 -5.000000
v 0.000000 4.051677 -5.000000
v 2.500000 4.051677 -5.000000
v 5.000000 4.051677 -5.000000
v 7.500000 4.051677 -5.000000
v -7.500000 4.051677 -2.500000
v -5.000000 4.051677 -2.500000
v -2.500000 4.051677 -2.500000
v 0.000000 4.051677 -2.500000
v 2.500000 4.051677 -2.500000
v 5.000000 4.051677 -2.500000
v 7.500000 4.051677 -2.500000
v -7.500000 4.051677 0.000000
v -5.000000 4.051677 0.000000
v -2.500000 4.051677 0.000000
v 0.000000 4.051677 0.000000
v 2.500000 4.051677 0.000000
v 5.000000 4.051677 0.000000
v 7.500000 4.051677 0.000000
v -7.500000 4.051677 2.500000
v -5.000000 4.051677 2.500000
v -2.500000 4.051677 2.500000
v 0.000000 4.051677 2.500000
v 2.500000 4.051677 2.500000
v 5.000000 4.051677 2.500000
v 7.500000 4.051677 2.500000
v -7.500000 4.051677 5.000000
v -5.000000 4.051677 5.000000
v -2.500000 4.051677 5.000000
v 0.000000 4.051677 5.000000
v 2.500000 4.051677 5.000000
v 5.000000 4.051677 5.000000
v 7.500000 4.051677 5.000000
v -2.113661 11.872193 2.113661
v -1.409107 11.872193 2.113661
v -1.409107 11.872193 1.409107
v -2.113661 11.872193 1.409107
v 1.409107 11.872193 2.113661
v 2.113661 11.872193 2.113661
v 2.113661 11.872193 1.409107
v 1.409107 11.872193 1.409107
v -2.113661 11.872193 -1.409107
v -1.409107 11.872193 -1.409107
v -1.409107 11.872193 -2.113661
v -2.113661 11.872193 -2.113661
v 1.409107 11.872193 -1.409107
v 2.113661 11.872193 -1.409107
v 2.113661 11.872193 -2.113661
v 1.409107 11.872193 -2.113661
v -1.669307 10.548280 1.669307
v -0.834654 10.548280 1.669307
v -0.834654 10.548280 0.834654
v -1.669307 10.548280 0.834654
v 0.834654 10.548280 1.669307
v 1.669307 10.548280 1.669307
v 1.669307 10.548280 0.834654
v 0.834654 10.548280 0.834654
v -1.669307 10.548280 -0.834654
v -0.834654 10.548280 -0.834654
v -0.834654 10.548280 -1.669307
v -1.669307 10.548280 -1.669307
v 0.834654 10.548280 -0.834654
v 1.669307 10.548280 -0.834654
v 1.669307 10.548280 -1.669307
v 0.834654 10.548280 -1.669307
v -0.134514 12.456392 0.134514
v 0.000000 12.456392 0.134514
v 0.000000 12.456392 -0.000000
v -0.134514 12.456392 0.000000
v 0.134514 12.456392 0.134514
v 0.134514 12.456392 0.000000
v 0.000000 12.456392 -0.134514
v -0.134514 12.456392 -0.134514
v 0.134514 12.456392 -0.134514
vt 0.375000 0.000000
vt 0.416667 0.000000
vt 0.458333 0.000000
vt 0.500000 0.000000
vt 0.541667 0.000000
vt 0.583333 0.000000
vt 0.625000 0.000000
vt 0.375000 0.250000
vt 0.416667 0.250000
vt 0.458333 0.250000
vt 0.500000 0.250000
vt 0.541667 0.250000
vt 0.583333 0.250000
vt 0.625000 0.250000
vt 0.375000 0.291667
vt 0.416667 0.291667
vt 0.458333 0.291667
vt 0.500000 0.291667
vt 0.541667 0.291667
vt 0.583333 0.291667
vt 0.625000 0.291667
vt 0.375000 0.333333
vt 0.416667 0.333333
vt 0.458333 0.333333
vt 0.500000 0.333333
vt 0.541667 0.333333
vt 0.583333 0.333333
vt 0.625000 0.333333
vt 0.375000 0.375000
vt 0.416667 0.375000
vt 0.458333 0.375000
vt 0.500000 0.375000
vt 0.541667 0.375000
vt 0.583333 0.375000
vt 0.625000 0.375000
vt 0.375000 0.416667
vt 0.416667 0.416667
vt 0.458333 0.416667
vt 0.500000 0.416667
vt 0.541667 0.416667
vt 0.583333 0.416667
vt 0.625000 0.416667
vt 0.375000 0.458333
vt 0.416667 0.458333
vt 0.458333 0.458333
vt 0.500000 0.458333
vt 0.541667 0.458333
vt 0.583333 0.458333
vt 0.625000 0.458333
vt 0.375000 0.500000
vt 0.416667 0.500000
vt 0.458333 0.500000
vt 0.500000 0.500000
vt 0.541667 0.500000
vt 0.583333 0.500000
vt 0.625000 0.500000
vt 0.375000 0.750000
vt 0.416667 0.750000
vt 0.458333 0.750000
vt 0.500000 0.750000
vt 0.541667 0.750000
vt 0.583333 0.750000
vt 0.625000 0.750000
vt 0.375000 0.791667
vt 0.416667 0.791667
vt 0.458333 0.791667
vt 0.500000 0.791667
vt 0.541667 0.791667
vt 0.583333 0.791667
vt 0.625000 0.791667
vt 0.375000 0.833333
vt 0.416667 0.833333
vt 0.458333 0.833333
vt 0.500000 0.833333
vt 0.541667 0.833333
vt 0.583333 0.833333
vt 0.625000 0.833333
vt 0.375000 0.875000
vt 0.416667 0.875000
vt 0.458333 0.875000
vt 0.500000 0.875000
vt 0.541667 0.875000
vt 0.583333 0.875000
vt 0.625000 0.875000
vt 0.375000 0.916667
vt 0.416667 0.916667
vt 0.458333 0.916667
vt 0.500000 0.916667
vt 0.541667 0.916667
vt 0.583333 0.916667
vt 0.625000 0.916667
vt 0.375000 0.958333
vt 0.416667 0.958333
vt 0.458333 0.958333
vt 0.500000 0.958333
vt 0.541667 0.958333
vt 0.583333 0.958333
vt 0.625000 0.958333
vt 0.375000 1.000000
vt 0.416667 1.000000
vt 0.458333 1.000000
vt 0.500000 1.000000
vt 0.541667 1.000000
vt 0.583333 1.000000
vt 0.625000 1.000000
vt 0.875000 0.000000
vt 0.833333 0.000000
vt 0.791667 0.000000
vt 0.750000 0.000000
vt 0.708333 0.000000
vt 0.666667 0.000000
vt 0.875000 0.250000
vt 0.833333 0.250000
vt 0.791667 0.250000
vt 0.750000 0.250000
vt 0.708333 0.250000
vt 0.666667 0.250000
vt 0.125000 0.000000
vt 0.166667 0.000000
vt 0.208333 0.000000
vt 0.250000 0.000000
vt 0.291667 0.000000
vt 0.333333 0.000000
vt 0.125000 0.250000
vt 0.166667 0.250000
vt 0.208333 0.250000
vt 0.250000 0.250000
vt 0.291667 0.250000
vt 0.333333 0.250000
vt 0.375000 0.250000
vt 0.416667 0.250000
vt 0.416667 0.291667
vt 0.375000 0.291667
vt 0.583333 0.250000
vt 0.625000 0.250000
vt 0.625000 0.291667
vt 0.583333 0.291667
vt 0.375000 0.458333
vt 0.416667 0.458333
vt 0.416667 0.500000
vt 0.375000 0.500000
vt 0.583333 0.458333
vt 0.625000 0.458333
vt 0.625000 0.500000
vt 0.583333 0.500000
vt 0.416667 0.291667
vt 0.458333 0.291667
vt 0.458333 0.333333
vt 0.416667 0.333333
vt 0.541667 0.291667
vt 0.583333 0.291667
vt 0.583333 0.333333
vt 0.541667 0.333333
vt 0.416667 0.416667
vt 0.458333 0.416667
vt 0.458333 0.458333
vt 0.416667 0.458333
vt 0.541667 0.416667
vt 0.583333 0.416667
vt 0.583333 0.458333
vt 0.541667 0.458333
vt 0.458333 0.333333
vt 0.500000 0.333333
vt 0.458333 0.375000
vt 0.541667 0.333333
vt 0.541667 0.375000
vt 0.500000 0.416667
vt 0.458333 0.416667
vt 0.541667 0.416667
vn 0.000000 0.000000 1.000000
vn 0.000000 0.000000 1.000000
vn 0.000000 0.448563 0.893751
vn 0.000000 0.444584 0.895737
vn 0.000000 0.000000 1.000000
vn 0.000000 0.000000 1.000000
vn 0.000000 0.000000 1.000000
vn 0.000000 0.000000 1.000000
vn 0.000000 0.000000 1.000000
vn 0.000000 0.000000 1.000000
vn 0.000000 0.000000 1.000000
vn 0.000000 0.448563 0.893751
vn 0.000000 0.000000 1.000000
vn 0.000000 0.444584 0.895737
vn 0.000000 1.000000 0.000000
vn 0.000000 1.000000 0.000000
vn 0.000000 1.000000 0.000000
vn 0.000000 1.000000 0.000000
vn 0.000000 1.000000 0.000000
vn 0.000000 1.000000 0.000000
vn 0.000000 1.000000 0.000000
vn 0.000000 1.000000 0.000000
vn 0.000000 1.000000 0.000000
vn 0.000000 1.000000 0.000000
vn 0.000000 1.000000 0.000000
vn 0.000000 1.000000 0.000000
vn 0.000000 1.000000 0.000000
vn 0.000000 1.000000 0.000000
vn 0.000000 1.000000 0.000000
vn 0.000000 1.000000 0.000000
vn 0.000000 1.000000 0.000000
vn 0.000000 1.000000 0.000000
vn 0.000000 1.000000 0.000000
vn 0.000000 1.000000 0.000000
vn 0.000000 1.000000 0.000000
vn 0.000000 1.000000 0.000000
vn 0.000000 1.000000 0.000000
vn 0.000000 1.000000 0.000000
vn 0.000000 1.000000 0.000000
vn 0.000000 1.000000 0.000000
vn 0.000000 1.000000 0.000000
vn 0.000000 1.000000 0.000000
vn 0.000000 1.000000 0.000000
vn 0.000000 1.000000 0.000000
vn 0.000000 1.000000 0.000000
vn 0.000000 1.000000 0.000000
vn 0.000000 1.000000 0.000000
vn 0.000000 1.000000 0.000000
vn 0.000000 1.000000 0.000000
vn 0.000000 1.000000 0.000000
vn 0.000000 1.000000 0.000000
vn 0.000000 1.000000 0.000000
vn 0.000000 1.000000 0.000000
vn 0.000000 1.000000 0.000000
vn 0.000000 1.000000 0.000000
vn 0.000000 1.000000 0.000000
vn 0.000000 1.000000 0.000000
vn 0.000000 1.000000 0.000000
vn 0.000000 1.000000 0.000000
vn 0.000000 1.000000 0.000000
vn 0.000000 1.000000 0.000000
vn 0.000000 1.000000 0.000000
vn 0.000000 1.000000 0.000000
vn 0.000000 1.000000 0.000000
vn 0.000000 1.000000 0.000000
vn 0.000000 1.000000 0.000000
vn 0.000000 1.000000 0.000000
vn 0.000000 1.000000 0.000000
vn 0.000000 1.000000 0.000000
vn 0.000000 1.000000 0.000000
vn 0.000000 1.000000 0.000000
vn 0.000000 1.000000 0.000000
vn 0.000000 1.000000 0.000000
vn 0.000000 1.000000 0.000000
vn 0.000000 1.000000 0.000000
vn 0.000000 1.000000 0.000000
vn 0.000000 1.000000 0.000000
vn 0.000000 1.000000 0.000000
vn 0.000000 1.000000 0.000000
vn 0.000000 1.000000 0.000000
vn 0.000000 1.000000 0.000000
vn 0.000000 1.000000 0.000000
vn 0.000000 1.000000 0.000000
vn 0.000000 1.000000 0.000000
vn 0.000000 1.000000 0.000000
vn 0.000000 1.000000 0.000000
vn 0.000000 1.000000 0.000000
vn 0.000000 1.000000 0.000000
vn 0.000000 1.000000 0.000000
vn 0.000000 1.000000 0.000000
vn 0.000000 1.000000 0.000000
vn 0.000000 1.000000 0.000000
vn 0.000000 1.000000 0.000000
vn 0.000000 1.000000 0.000000
vn 0.000000 1.000000 0.000000
vn 0.000000 1.000000 0.000000
vn 0.000000 1.000000 0.000000
vn 0.000000 1.000000 0.000000
vn 0.000000 1.000000 0.000000
vn 0.000000 1.000000 0.000000
vn 0.000000 1.000000 0.000000
vn 0.000000 1.000000 0.000000
vn 0.000000 1.000000 0.000000
vn 0.000000 1.000000 0.000000
vn 0.000000 1.000000 0.000000
vn 0.000000 1.000000 0.000000
vn 0.000000 1.000000 0.000000
vn 0.000000 0.444584 -0.895737
vn 0.000000 0.448563 -0.893751
vn 0.000000 0.000000 -1.000000
vn 0.000000 0.000000 -1.000000
vn 0.000000 0.000000 -1.000000
vn 0.000000 0.000000 -1.000000
vn 0.000000 0.000000 -1.000000
vn 0.000000 0.000000 -1.000000
vn 0.000000 0.000000 -1.000000
vn 0.000000 0.000000 -1.000000
vn 0.000000 0.448563 -0.893751
vn 0.000000 0.000000 -1.000000
vn 0.000000 0.444584 -0.895737
vn 0.000000 0.000000 -1.000000
vn 0.000000 -1.000000 0.000000
vn 0.000000 -1.000000 0.000000
vn 0.000000 -1.000000 0.000000
vn 0.000000 -1.000000 0.000000
vn 0.000000 -1.000000 0.000000
vn 0.000000 -1.000000 0.000000
vn 0.000000 -1.000000 0.000000
vn 0.000000 -1.000000 0.000000
vn 0.000000 -1.000000 0.000000
vn 0.000000 -1.000000 0.000000
vn 0.000000 -1.000000 0.000000
vn 0.000000 -1.000000 0.000000
vn 0.000000 -1.000000 0.000000
vn 0.000000 -1.000000 0.000000
vn 0.000000 -1.000000 0.000000
vn 0.000000 -1.000000 0.000000
vn 0.000000 -1.000000 0.000000
vn 0.000000 -1.000000 0.000000
vn 0.000000 -1.000000 0.000000
vn 0.000000 -1.000000 0.000000
vn 0.000000 -1.000000 0.000000
vn 0.000000 -1.000000 0.000000
vn 0.000000 -1.000000 0.000000
vn 0.000000 -1.000000 0.000000
vn 0.000000 -1.000000 0.000000
vn 0.000000 -1.000000 0.000000
vn 0.000000 -1.000000 0.000000
vn 0.000000 -1.000000 0.000000
vn 0.000000 -1.000000 0.000000
vn 0.000000 -1.000000 0.000000
vn 0.000000 -1.000000 0.000000
vn 0.000000 -1.000000 0.000000
vn 0.000000 -1.000000 0.000000
vn 0.000000 -1.000000 0.000000
vn 0.000000 -1.000000 0.000000
vn 0.000000 -1.000000 0.000000
vn 0.000000 -1.000000 0.000000
vn 0.000000 -1.000000 0.000000
vn 0.000000 -1.000000 0.000000
vn 0.000000 -1.000000 0.000000
vn 0.000000 -1.000000 0.000000
vn 0.000000 -1.000000 0.000000
vn 0.000000 -1.000000 0.000000
vn 0.000000 -1.000000 0.000000
vn 0.000000 -1.000000 0.000000
vn 0.000000 -1.000000 0.000000
vn 0.000000 -1.000000 0.000000
vn 0.000000 -1.000000 0.000000
vn 0.000000 -1.000000 0.000000
vn 1.000000 0.000000 0.000000
vn 1.000000 0.000000 0.000000
vn 0.895737 0.444584 0.000000
vn 0.893751 0.448563 0.000000
vn 1.000000 0.000000 0.000000
vn 1.000000 0.000000 0.000000
vn 1.000000 0.000000 0.000000
vn 1.000000 0.000000 0.000000
vn 1.000000 0.000000 0.000000
vn 1.000000 0.000000 0.000000
vn 1.000000 0.000000 0.000000
vn 0.893751 0.448563 0.000000
vn 1.000000 0.000000 0.000000
vn 0.895737 0.444584 0.000000
vn -1.000000 0.000000 0.000000
vn -1.000000 0.000000 0.000000
vn -0.893751 0.448563 0.000000
vn -0.895737 0.444584 0.000000
vn -1.000000 0.000000 0.000000
vn -1.000000 0.000000 0.000000
vn -1.000000 0.000000 0.000000
vn -1.000000 0.000000 0.000000
vn -1.000000 0.000000 0.000000
vn -1.000000 0.000000 0.000000
vn -1.000000 0.000000 0.000000
vn -0.893751 0.448563 0.000000
vn -1.000000 0.000000 0.000000
vn -0.895737 0.444584 0.000000
vn 0.000000 0.679202 0.733951
vn 0.000000 0.679202 0.733951
vn 0.851068 -0.525056 0.000000
vn 0.851068 -0.525056 0.000000
vn 0.851068 -0.525056 0.000000
vn 0.851068 -0.525056 0.000000
vn 0.000000 -0.525055 -0.851068
vn 0.000000 -0.525055 -0.851068
vn 0.000000 -0.525055 -0.851068
vn 0.000000 -0.525055 -0.851068
vn -0.733951 0.679203 0.000000
vn -0.733951 0.679203 0.000000
vn 0.000000 0.679202 0.733951
vn 0.000000 0.679202 0.733951
vn 0.733951 0.679202 0.000000
vn 0.733951 0.679202 0.000000
vn 0.000000 -0.525055 -0.851068
vn 0.000000 -0.525055 -0.851068
vn 0.000000 -0.525055 -0.851068
vn 0.000000 -0.525055 -0.851068
vn -0.851068 -0.525056 0.000000
vn -0.851068 -0.525056 0.000000
vn -0.851068 -0.525056 0.000000
vn -0.851068 -0.525056 0.000000
vn 0.000000 -0.525055 0.851068
vn 0.000000 -0.525055 0.851068
vn 0.000000 -0.525055 0.851068
vn 0.000000 -0.525055 0.851068
vn 0.851068 -0.525056 0.000000
vn 0.851068 -0.525056 0.000000
vn 0.851068 -0.525056 0.000000
vn 0.851068 -0.525056 0.000000
vn 0.000000 0.679202 -0.733951
vn 0.000000 0.679202 -0.733951
vn -0.733951 0.679202 0.000000
vn -0.733951 0.679202 0.000000
vn 0.000000 -0.525055 0.851068
vn 0.000000 -0.525055 0.851068
vn 0.000000 -0.525055 0.851068
vn 0.000000 -0.525055 0.851068
vn 0.733951 0.679203 0.000000
vn 0.733951 0.679203 0.000000
vn 0.000000 0.679202 -0.733951
vn 0.000000 0.679202 -0.733951
vn -0.851068 -0.525056 0.000000
vn -0.851068 -0.525056 0.000000
vn -0.851068 -0.525056 0.000000
vn -0.851068 -0.525056 0.000000
vn 0.000000 0.595213 0.803568
vn 0.000000 0.595213 0.803568
vn 0.000000 0.595213 0.803568
vn 0.000000 0.595213 0.803568
vn 0.937753 -0.347303 0.000000
vn 0.937753 -0.347303 0.000000
vn 0.937753 -0.347303 0.000000
vn 0.937753 -0.347303 0.000000
vn 0.000000 -0.347303 -0.937753
vn 0.000000 -0.347303 -0.937753
vn 0.000000 -0.347303 -0.937753
vn 0.000000 -0.347303 -0.937753
vn -0.803568 0.595213 0.000000
vn -0.803568 0.595213 0.000000
vn -0.803568 0.595213 0.000000
vn -0.803568 0.595213 0.000000
vn 0.000000 0.595213 0.803568
vn 0.000000 0.595213 0.803568
vn 0.000000 0.595213 0.803568
vn 0.000000 0.595213 0.803568
vn 0.803568 0.595213 0.000000
vn 0.803568 0.595213 0.000000
vn 0.803568 0.595213 0.000000
vn 0.803568 0.595213 0.000000
vn 0.000000 -0.347303 -0.937753
vn 0.000000 -0.347303 -0.937753
vn 0.000000 -0.347303 -0.937753
vn 0.000000 -0.347303 -0.937753
vn -0.937753 -0.347303 0.000000
vn -0.937753 -0.347303 0.000000
vn -0.937753 -0.347303 0.000000
vn -0.937753 -0.347303 0.000000
vn 0.000000 -0.347303 0.937753
vn 0.000000 -0.347303 0.937753
vn 0.000000 -0.347303 0.937753
vn 0.000000 -0.347303 0.937753
vn 0.937753 -0.347303 0.000000
vn 0.937753 -0.347303 0.000000
vn 0.937753 -0.347303 0.000000
vn 0.937753 -0.347303 0.000000
vn 0.000000 0.595213 -0.803568
vn 0.000000 0.595213 -0.803568
vn 0.000000 0.595213 -0.803568
vn 0.000000 0.595213 -0.803568
vn -0.803568 0.595213 0.000000
vn -0.803568 0.595213 0.000000
vn -0.803568 0.595213 0.000000
vn -0.803568 0.595213 0.000000
vn 0.000000 -0.347303 0.937753
vn 0.000000 -0.347303 0.937753
vn 0.000000 -0.347303 0.937753
vn 0.000000 -0.347303 0.937753
vn 0.803568 0.595213 0.000000
vn 0.803568 0.595213 0.000000
vn 0.803568 0.595213 0.000000
vn 0.803568 0.595213 0.000000
vn 0.000000 0.595213 -0.803568
vn 0.000000 0.595213 -0.803568
vn 0.000000 0.595213 -0.803568
vn 0.000000 0.595213 -0.803568
vn -0.937753 -0.347303 0.000000
vn -0.937753 -0.347303 0.000000
vn -0.937753 -0.347303 0.000000
vn -0.937753 -0.347303 0.000000
vn 0.000000 0.346460 0.938065
vn 0.000000 0.346460 0.938065
vn 0.000000 0.346460 0.938065
vn 0.000000 0.346460 0.938065
vn -0.938065 0.346460 0.000000
vn -0.938065 0.346460 0.000000
vn -0.938065 0.346460 0.000000
vn -0.938065 0.346460 0.000000
vn 0.000000 0.346460 0.938065
vn 0.000000 0.346460 0.938065
vn 0.938065 0.346460 0.000000
vn 0.938065 0.346460 0.000000
vn 0.938065 0.346460 0.000000
vn 0.938065 0.346460 0.000000
vn 0.000000 0.346460 -0.938065
vn 0.000000 0.346460 -0.938065
vn 0.000000 0.346460 -0.938065
vn 0.000000 0.346460 -0.938065
vn -0.938065 0.346460 0.000000
vn -0.938065 0.346460 0.000000
vn 0.938065 0.346460 0.000000
vn 0.938065 0.346460 0.000000
vn 0.000000 0.346460 -0.938065
vn 0.000000 0.346460 -0.938065
s 1
g pCube1
usemtl initialShadingGroup
f 1/1/1 2/2/2 9/9/3 8/8/4
f 2/2/2 3/3/5 10/10/6 9/9/3
f 3/3/5 4/4/7 11/11/8 10/10/6
f 4/4/7 5/5/9 12/12/10 11/11/8
f 5/5/9 6/6/11 13/13/12 12/12/10
f 6/6/11 7/7/13 14/14/14 13/13/12
s off
f 98/130/15 99/131/16 100/132/17 101/133/18
s 2
f 9/9/19 10/10/20 17/17/21 16/16/22
f 10/10/20 11/11/23 18/18/24 17/17/21
f 11/11/23 12/12/25 19/19/26 18/18/24
f 12/12/25 13/13/27 20/20/28 19/19/26
s off
f 102/134/29 103/135/30 104/136/31 105/137/32
s 3
f 15/15/33 16/16/34 23/23/35 22/22/36
s off
f 114/146/37 115/147/38 116/148/39 117/149/40
s 2
f 17/17/21 18/18/24 25/25/41 24/24/42
f 18/18/24 19/19/26 26/26/43 25/25/41
s off
f 118/150/44 119/151/45 120/152/46 121/153/47
s 4
f 20/20/48 21/21/49 28/28/50 27/27/51
s 3
f 22/22/36 23/23/35 30/30/52 29/29/53
f 23/23/35 24/24/54 31/31/55 30/30/52
s 5
f 130/162/56 131/163/57 132/32/58 133/164/59
f 131/163/57 134/165/60 135/166/61 132/32/58
s 4
f 26/26/62 27/27/51 33/34/63 32/33/64
f 27/27/51 28/28/50 34/35/65 33/34/63
s 3
f 29/29/53 30/30/52 36/37/66 35/36/67
f 30/30/52 31/31/55 37/38/68 36/37/66
s 5
f 133/164/59 132/32/58 136/167/69 137/168/70
f 132/32/58 135/166/61 138/169/71 136/167/69
s 4
f 32/33/64 33/34/63 40/41/72 39/40/73
f 33/34/63 34/35/65 41/42/74 40/41/72
s 3
f 35/36/67 36/37/66 43/44/75 42/43/76
s off
f 122/154/77 123/155/78 124/156/79 125/157/80
s 6
f 37/38/81 38/39/82 45/46/83 44/45/84
f 38/39/82 39/40/85 46/47/86 45/46/83
s off
f 126/158/87 127/159/88 128/160/89 129/161/90
s 4
f 40/41/72 41/42/74 48/49/91 47/48/92
s off
f 106/138/93 107/139/94 108/140/95 109/141/96
s 6
f 43/44/97 44/45/84 51/52/98 50/51/99
f 44/45/84 45/46/83 52/53/100 51/52/98
f 45/46/83 46/47/86 53/54/101 52/53/100
f 46/47/86 47/48/102 54/55/103 53/54/101
s off
f 110/142/104 111/143/105 112/144/106 113/145/107
s 7
f 49/50/108 50/51/109 57/58/110 56/57/111
f 50/51/109 51/52/112 58/59/113 57/58/110
f 51/52/112 52/53/114 59/60/115 58/59/113
f 52/53/114 53/54/116 60/61/117 59/60/115
f 53/54/116 54/55/118 61/62/119 60/61/117
f 54/55/118 55/56/120 62/63/121 61/62/119
s 8
f 56/57/122 57/58/123 64/65/124 63/64/125
f 57/58/123 58/59/126 65/66/127 64/65/124
f 58/59/126 59/60/128 66/67/129 65/66/127
f 59/60/128 60/61/130 67/68/131 66/67/129
f 60/61/130 61/62/132 68/69/133 67/68/131
f 61/62/132 62/63/134 69/70/135 68/69/133
f 63/64/125 64/65/124 71/72/136 70/71/137
f 64/65/124 65/66/127 72/73/138 71/72/136
f 65/66/127 66/67/129 73/74/139 72/73/138
f 66/67/129 67/68/131 74/75/140 73/74/139
f 67/68/131 68/69/133 75/76/141 74/75/140
f 68/69/133 69/70/135 76/77/142 75/76/141
f 70/71/137 71/72/136 78/79/143 77/78/144
f 71/72/136 72/73/138 79/80/145 78/79/143
f 72/73/138 73/74/139 80/81/146 79/80/145
f 73/74/139 74/75/140 81/82/147 80/81/146
f 74/75/140 75/76/141 82/83/148 81/82/147
f 75/76/141 76/77/142 83/84/149 82/83/148
f 77/78/144 78/79/143 85/86/150 84/85/151
f 78/79/143 79/80/145 86/87/152 85/86/150
f 79/80/145 80/81/146 87/88/153 86/87/152
f 80/81/146 81/82/147 88/89/154 87/88/153
f 81/82/147 82/83/148 89/90/155 88/89/154
f 82/83/148 83/84/149 90/91/156 89/90/155
f 84/85/151 85/86/150 92/93/157 91/92/158
f 85/86/150 86/87/152 93/94/159 92/93/157
f 86/87/152 87/88/153 94/95/160 93/94/159
f 87/88/153 88/89/154 95/96/161 94/95/160
f 88/89/154 89/90/155 96/97/162 95/96/161
f 89/90/155 90/91/156 97/98/163 96/97/162
f 91/92/158 92/93/157 2/100/164 1/99/165
f 92/93/157 93/94/159 3/101/166 2/100/164
f 93/94/159 94/95/160 4/102/167 3/101/166
f 94/95/160 95/96/161 5/103/168 4/102/167
f 95/96/161 96/97/162 6/104/169 5/103/168
f 96/97/162 97/98/163 7/105/170 6/104/169
s 9
f 69/107/171 62/106/172 55/112/173 48/113/174
f 76/108/175 69/107/171 48/113/174 41/114/176
f 83/109/177 76/108/175 41/114/176 34/115/178
f 90/110/179 83/109/177 34/115/178 28/116/180
f 97/111/181 90/110/179 28/116/180 21/117/182
f 7/7/183 97/111/181 21/117/182 14/14/184
s 10
f 56/118/185 63/119/186 42/125/187 49/124/188
f 63/119/186 70/120/189 35/126/190 42/125/187
f 70/120/189 77/121/191 29/127/192 35/126/190
f 77/121/191 84/122/193 22/128/194 29/127/192
f 84/122/193 91/123/195 15/129/196 22/128/194
f 91/123/195 1/1/197 8/8/198 15/129/196
s 1
f 8/8/4 9/9/3 99/131/199 98/130/200
s off
f 9/9/201 16/16/202 100/132/203 99/131/204
f 16/16/205 15/15/206 101/133/207 100/132/208
s 10
f 15/15/196 8/8/198 98/130/209 101/133/210
s 1
f 13/13/12 14/14/14 103/135/211 102/134/212
s 9
f 14/14/184 21/21/182 104/136/213 103/135/214
s off
f 21/21/215 20/20/216 105/137/217 104/136/218
f 20/20/219 13/13/220 102/134/221 105/137/222
f 42/43/223 43/44/224 107/139/225 106/138/226
f 43/44/227 50/51/228 108/140/229 107/139/230
s 7
f 50/51/109 49/50/108 109/141/231 108/140/232
s 10
f 49/50/188 42/43/187 106/138/233 109/141/234
s off
f 47/48/235 48/49/236 111/143/237 110/142/238
s 9
f 48/49/174 55/56/173 112/144/239 111/143/240
s 7
f 55/56/120 54/55/118 113/145/241 112/144/242
s off
f 54/55/243 47/48/244 110/142/245 113/145/246
f 16/16/247 17/17/248 115/147/249 114/146/250
f 17/17/251 24/24/252 116/148/253 115/147/254
f 24/24/255 23/23/256 117/149/257 116/148/258
f 23/23/259 16/16/260 114/146/261 117/149/262
f 19/19/263 20/20/264 119/151/265 118/150/266
f 20/20/267 27/27/268 120/152/269 119/151/270
f 27/27/271 26/26/272 121/153/273 120/152/274
f 26/26/275 19/19/276 118/150/277 121/153/278
f 36/37/279 37/38/280 123/155/281 122/154/282
f 37/38/283 44/45/284 124/156/285 123/155/286
f 44/45/287 43/44/288 125/157/289 124/156/290
f 43/44/291 36/37/292 122/154/293 125/157/294
f 39/40/295 40/41/296 127/159/297 126/158/298
f 40/41/299 47/48/300 128/160/301 127/159/302
f 47/48/303 46/47/304 129/161/305 128/160/306
f 46/47/307 39/40/308 126/158/309 129/161/310
s 11
f 24/24/311 25/25/312 131/163/313 130/162/314
s 12
f 31/31/315 24/24/316 130/162/317 133/164/318
s 11
f 25/25/312 26/26/319 134/165/320 131/163/313
s 13
f 26/26/321 32/33/322 135/166/323 134/165/324
s 14
f 38/39/325 37/38/326 137/168/327 136/167/328
s 12
f 37/38/329 31/31/315 133/164/318 137/168/330
s 13
f 32/33/322 39/40/331 138/169/332 135/166/323
s 14
f 39/40/333 38/39/325 136/167/328 138/169/334
